<svg width="276" height="251" viewBox="0 0 276 251" fill="none" xmlns="http://www.w3.org/2000/svg">
<mask id="mask0_328_19135" style="mask-type:luminance" maskUnits="userSpaceOnUse" x="48" y="72" width="32" height="52">
<path d="M48.8665 72.3024H79.4881V123.704H48.8665V72.3024Z" fill="white"/>
</mask>
<g mask="url(#mask0_328_19135)">
<path d="M60.7316 74.8779L76.7683 92.6545C77.0903 93.0115 77.3778 93.4036 77.6308 93.8244C77.8867 94.2451 78.0995 94.6882 78.2748 95.1567C78.4502 95.6221 78.5796 96.1034 78.6687 96.6007C78.7578 97.0979 78.8038 97.5984 78.8038 98.1052C78.8038 98.612 78.7578 99.1124 78.6687 99.6097C78.5796 100.104 78.4502 100.588 78.2748 101.054C78.0995 101.522 77.8867 101.965 77.6308 102.386C77.3778 102.807 77.0903 103.196 76.7683 103.556L60.7316 121.332C56.353 126.187 48.8636 122.748 48.8665 115.875V80.3221C48.8636 73.4626 56.353 70.0201 60.7316 74.8779Z" fill="white"/>
</g>
<mask id="mask1_328_19135" style="mask-type:luminance" maskUnits="userSpaceOnUse" x="48" y="72" width="32" height="40">
<path d="M48.8665 72.3024H79.4881V111.464H48.8665V72.3024Z" fill="white"/>
</mask>
<g mask="url(#mask1_328_19135)">
<path d="M60.7316 74.8778C56.3789 70.0488 48.9729 73.4243 48.8694 80.2073C48.8694 80.2073 74.1033 106.676 70.0898 110.989L76.7828 103.572C77.1048 103.212 77.3923 102.823 77.6453 102.402C77.9011 101.981 78.1139 101.538 78.2893 101.07C78.4618 100.604 78.594 100.12 78.6831 99.6256C78.7723 99.1283 78.8183 98.6279 78.8183 98.1211C78.8183 97.6143 78.7723 97.1138 78.6831 96.6166C78.594 96.1193 78.4618 95.638 78.2893 95.1727C78.1139 94.7041 77.9011 94.261 77.6453 93.8403C77.3923 93.4163 77.1048 93.0275 76.7828 92.6705L60.7316 74.8778Z" fill="white"/>
</g>
<mask id="mask2_328_19135" style="mask-type:luminance" maskUnits="userSpaceOnUse" x="89" y="72" width="10" height="11">
<path d="M89.0559 72.3024H98.5463V82.904H89.0559V72.3024Z" fill="white"/>
</mask>
<g mask="url(#mask2_328_19135)">
<path d="M98.7534 77.396C98.7534 77.7275 98.7247 78.0558 98.6672 78.3809C98.6068 78.7061 98.5205 79.0184 98.4084 79.3244C98.2934 79.6304 98.1525 79.9205 97.9887 80.1946C97.8219 80.4719 97.6322 80.7269 97.4223 80.9596C97.2124 81.1923 96.9824 81.4027 96.7352 81.5844C96.485 81.7692 96.2234 81.9254 95.9474 82.0497C95.6743 82.1772 95.3897 82.2729 95.0964 82.3366C94.8032 82.4036 94.507 82.4354 94.2109 82.4354C93.9119 82.4354 93.6158 82.4036 93.3225 82.3366C93.0322 82.2729 92.7475 82.1772 92.4715 82.0497C92.1955 81.9254 91.9339 81.7692 91.6867 81.5844C91.4365 81.4027 91.2094 81.1923 90.9967 80.9596C90.7868 80.7269 90.597 80.4719 90.4332 80.1946C90.2664 79.9205 90.1255 79.6304 90.0134 79.3244C89.8984 79.0184 89.8122 78.7061 89.7547 78.3809C89.6972 78.0558 89.6655 77.7275 89.6655 77.396C89.6655 77.0677 89.6972 76.7394 89.7547 76.4142C89.8122 76.0891 89.8984 75.7767 90.0134 75.4707C90.1255 75.1647 90.2664 74.8747 90.4332 74.6006C90.597 74.3232 90.7868 74.0682 90.9967 73.8356C91.2094 73.6029 91.4365 73.3925 91.6867 73.2108C91.9339 73.0259 92.1955 72.8697 92.4715 72.7422C92.7475 72.6179 93.0322 72.5223 93.3225 72.4586C93.6158 72.3916 93.9119 72.3597 94.2109 72.3597C94.507 72.3597 94.8032 72.3916 95.0964 72.4586C95.3897 72.5223 95.6743 72.6179 95.9474 72.7422C96.2234 72.8697 96.485 73.0259 96.7352 73.2108C96.9824 73.3925 97.2124 73.6029 97.4223 73.8356C97.6322 74.0682 97.8219 74.3232 97.9887 74.6006C98.1525 74.8747 98.2934 75.1647 98.4084 75.4707C98.5205 75.7767 98.6068 76.0891 98.6672 76.4142C98.7247 76.7394 98.7534 77.0677 98.7534 77.396Z" fill="white"/>
<path d="M98.7534 77.396C98.7534 77.7275 98.7247 78.0558 98.6672 78.3809C98.6068 78.7061 98.5205 79.0184 98.4084 79.3244C98.2934 79.6304 98.1525 79.9205 97.9887 80.1946C97.8219 80.4719 97.6322 80.7269 97.4223 80.9596C97.2124 81.1923 96.9824 81.4027 96.7352 81.5844C96.485 81.7692 96.2234 81.9254 95.9474 82.0497C95.6743 82.1772 95.3897 82.2729 95.0964 82.3366C94.8032 82.4036 94.507 82.4354 94.2109 82.4354C93.9119 82.4354 93.6158 82.4036 93.3225 82.3366C93.0322 82.2729 92.7475 82.1772 92.4715 82.0497C92.1955 81.9254 91.9339 81.7692 91.6867 81.5844C91.4365 81.4027 91.2094 81.1923 90.9967 80.9596C90.7868 80.7269 90.597 80.4719 90.4332 80.1946C90.2664 79.9205 90.1255 79.6304 90.0134 79.3244C89.8984 79.0184 89.8122 78.7061 89.7547 78.3809C89.6972 78.0558 89.6655 77.7275 89.6655 77.396C89.6655 77.0677 89.6972 76.7394 89.7547 76.4142C89.8122 76.0891 89.8984 75.7767 90.0134 75.4707C90.1255 75.1647 90.2664 74.8747 90.4332 74.6006C90.597 74.3232 90.7868 74.0682 90.9967 73.8356C91.2094 73.6029 91.4365 73.3925 91.6867 73.2108C91.9339 73.0259 92.1955 72.8697 92.4715 72.7422C92.7475 72.6179 93.0322 72.5223 93.3225 72.4586C93.6158 72.3916 93.9119 72.3597 94.2109 72.3597C94.507 72.3597 94.8032 72.3916 95.0964 72.4586C95.3897 72.5223 95.6743 72.6179 95.9474 72.7422C96.2234 72.8697 96.485 73.0259 96.7352 73.2108C96.9824 73.3925 97.2124 73.6029 97.4223 73.8356C97.6322 74.0682 97.8219 74.3232 97.9887 74.6006C98.1525 74.8747 98.2934 75.1647 98.4084 75.4707C98.5205 75.7767 98.6068 76.0891 98.6672 76.4142C98.7247 76.7394 98.7534 77.0677 98.7534 77.396Z" fill="white"/>
</g>
<mask id="mask3_328_19135" style="mask-type:luminance" maskUnits="userSpaceOnUse" x="67" y="72" width="32" height="52">
<path d="M67.7119 72.3024H98.5463V123.704H67.7119V72.3024Z" fill="white"/>
</mask>
<g mask="url(#mask3_328_19135)">
<path d="M96.715 92.6992L80.6811 74.9193C76.3743 70.1444 64.9002 75.6843 68.8275 80.0352L80.3591 92.8235C80.6811 93.1837 80.9715 93.5726 81.2245 93.9933C81.4775 94.4141 81.6931 94.8571 81.8656 95.3225C82.041 95.7911 82.1732 96.2724 82.2623 96.7696C82.3515 97.2669 82.3975 97.7673 82.3975 98.2741C82.3975 98.7777 82.3515 99.2814 82.2623 99.7754C82.1732 100.273 82.041 100.754 81.8656 101.223C81.6931 101.688 81.4775 102.134 81.2245 102.555C80.9715 102.976 80.6811 103.365 80.3591 103.722L68.8361 116.5C65.3228 120.392 76.4175 126.133 80.6811 121.409L96.715 103.629C97.0398 103.272 97.3302 102.883 97.5861 102.459C97.842 102.039 98.0576 101.592 98.233 101.124C98.4083 100.655 98.5406 100.171 98.6297 99.6734C98.7217 99.1762 98.7648 98.6726 98.7648 98.1657C98.7648 97.6557 98.7217 97.1521 98.6297 96.6549C98.5406 96.1576 98.4083 95.6731 98.233 95.2046C98.0576 94.736 97.842 94.2897 97.5861 93.869C97.3302 93.4451 97.0398 93.0562 96.715 92.6992Z" fill="white"/>
</g>
<mask id="mask4_328_19135" style="mask-type:luminance" maskUnits="userSpaceOnUse" x="67" y="72" width="32" height="40">
<path d="M67.7119 72.3024H98.5463V111.464H67.7119V72.3024Z" fill="white"/>
</mask>
<g mask="url(#mask4_328_19135)">
<path d="M96.715 92.6992L80.6811 74.9193C76.3743 70.1444 64.9002 75.6843 68.8275 80.0352L80.3591 92.8235C80.9168 93.4419 81.3653 94.1431 81.7046 94.9272C82.0467 95.7146 82.2595 96.5401 82.3486 97.4071C86.3218 102.58 89.6252 107.601 90.3123 110.731L96.7265 103.62C97.0485 103.259 97.3388 102.87 97.5918 102.447C97.8477 102.026 98.0605 101.58 98.2358 101.111C98.4112 100.642 98.5435 100.161 98.6326 99.6639C98.7217 99.1666 98.7648 98.663 98.7648 98.1562C98.7648 97.6494 98.7188 97.1457 98.6297 96.6485C98.5406 96.1512 98.4055 95.6699 98.2301 95.2014C98.0547 94.7328 97.8391 94.2866 97.5832 93.8658C97.3302 93.4451 97.0398 93.0562 96.715 92.6992Z" fill="white"/>
</g>
<path d="M119.644 110.442L124.656 92.4074L129.652 110.442H133.516L140.684 86.3543H136.469L131.921 102.426L131.472 104.529H131.426L131.058 102.547L126.749 86.3702H122.548L118.224 102.585L117.902 104.529H117.839L117.425 102.636L112.828 86.3543H108.627L115.798 110.442H119.644Z" fill="white"/>
<path d="M158.781 101.026C158.781 96.0156 155.461 91.6997 150.513 91.6997C145.579 91.6997 142.003 96.0347 142.003 101.345C142.003 106.655 145.579 110.99 150.513 110.99C154.598 110.99 157.519 108.001 158.35 104.724H154.135C153.578 106.267 152.379 107.169 150.432 107.169C148.167 107.169 146.281 105.451 145.881 102.477H158.701C158.767 101.804 158.781 101.485 158.781 101.026ZM146.042 99.168C146.698 96.6021 148.549 95.4323 150.496 95.4323C152.764 95.4323 154.679 97.1312 154.84 99.168H146.042Z" fill="white"/>
<path d="M176.021 110.442V106.496H166.217V86.3702H162.244V110.442H176.021Z" fill="white"/>
<path d="M194.535 101.026C194.535 96.0156 191.214 91.6997 186.266 91.6997C181.333 91.6997 177.756 96.0347 177.756 101.345C177.756 106.655 181.333 110.99 186.266 110.99C190.352 110.99 193.273 108.001 194.104 104.724H189.889C189.331 106.267 188.132 107.169 186.186 107.169C183.92 107.169 182.034 105.451 181.635 102.477H194.454C194.52 101.804 194.535 101.485 194.535 101.026ZM181.796 99.168C182.451 96.6021 184.303 95.4323 186.249 95.4323C188.517 95.4323 190.432 97.1312 190.593 99.168H181.796Z" fill="white"/>
<path d="M204.239 110.99C206.904 110.99 209.074 109.645 210.144 107.379V110.442H213.815V92.248H210.144V95.3271C209.092 93.0608 206.904 91.6997 204.221 91.6997C199.831 91.6997 196.511 96.0347 196.511 101.345C196.511 106.691 199.8 110.99 204.239 110.99ZM205.164 107.025C202.563 107.025 200.343 104.883 200.343 101.345C200.343 97.9281 202.514 95.6618 205.164 95.6618C207.847 95.6618 209.986 98.1767 209.986 101.345C209.986 104.564 207.861 107.025 205.164 107.025Z" fill="white"/>
<path d="M222.209 110.442V101.983C222.209 98.1066 224.015 95.9295 226.665 95.9295H228.212V92.248H226.456C224.317 92.248 222.816 93.5389 222.051 95.5407V92.248H218.345V110.442H222.209Z" fill="white"/>
<path d="M234.834 110.442V101.151C234.834 97.5934 236.91 95.6458 239.179 95.6458C241.507 95.6458 242.976 97.1153 242.976 100.727V110.442H246.84V100.637C246.84 94.9191 244.653 91.6997 240.248 91.6997C237.724 91.6997 235.585 93.0958 234.645 95.0785V92.248H230.97V110.442H234.834Z" fill="white"/>
</svg>
