<svg width="57" height="52" viewBox="0 0 57 52" fill="none" xmlns="http://www.w3.org/2000/svg">
<path d="M13.4763 2.31731L31.6877 20.4436C31.8706 20.6257 32.0441 20.816 32.2082 21.0151C32.3723 21.2137 32.5263 21.4205 32.6697 21.6343C32.8131 21.8481 32.9459 22.069 33.0681 22.2957C33.1897 22.5225 33.3 22.7551 33.3992 22.993C33.4983 23.2309 33.5851 23.4729 33.6601 23.7191C33.7356 23.9652 33.7982 24.2149 33.8483 24.4669C33.8991 24.7195 33.9369 24.9738 33.9622 25.2299C33.9876 25.486 34 25.7428 34 26C34 26.2573 33.9876 26.514 33.9622 26.7702C33.9369 27.0263 33.8991 27.2806 33.8483 27.5332C33.7982 27.7858 33.7356 28.0349 33.6601 28.281C33.5851 28.5277 33.4983 28.7698 33.3992 29.0077C33.3 29.245 33.1897 29.4776 33.0681 29.7044C32.9459 29.9317 32.8131 30.152 32.6697 30.3658C32.5263 30.5802 32.3723 30.7864 32.2082 30.9855C32.0441 31.1847 31.8706 31.375 31.6877 31.5571L13.4763 49.6834C8.5028 54.6336 -0.0041298 51.1255 1.50419e-06 44.1204V7.86791C-0.0041298 0.87517 8.5028 -2.63354 13.4763 2.31731Z" fill="#72FFFF"/>
<path d="M13.4673 2.36845C8.52389 -2.66262 0.117404 0.853127 0 7.92184C0 7.92184 28.646 35.5045 24.0909 40L31.6885 32.2685C31.8714 32.0824 32.0448 31.8879 32.2083 31.6843C32.3723 31.4814 32.5263 31.2701 32.6696 31.0515C32.8136 30.8324 32.9463 30.6073 33.0678 30.3755C33.19 30.1432 33.3003 29.906 33.3994 29.6629C33.4979 29.4197 33.5853 29.1724 33.6602 28.9208C33.7351 28.6693 33.7976 28.4141 33.8484 28.156C33.8985 27.8984 33.9363 27.6385 33.9617 27.3767C33.987 27.1149 34 26.8526 34 26.5896C34 26.3261 33.987 26.0637 33.9617 25.8019C33.9363 25.5402 33.8985 25.2802 33.8484 25.0227C33.7976 24.7645 33.7351 24.51 33.6602 24.2578C33.5853 24.0062 33.4979 23.7589 33.3994 23.5157C33.3003 23.2726 33.19 23.0355 33.0678 22.8031C32.9463 22.5714 32.8136 22.3462 32.6696 22.1271C32.5263 21.9086 32.3723 21.6978 32.2083 21.4943C32.0448 21.2908 31.8714 21.0963 31.6885 20.9102L13.4673 2.36845Z" fill="#00D7FF"/>
<mask id="mask0_333_19236" style="mask-type:luminance" maskUnits="userSpaceOnUse" x="45" y="0" width="12" height="11">
<path d="M45.7469 0H56.0624V10.2711H45.7469V0Z" fill="white"/>
</mask>
<g mask="url(#mask0_333_19236)">
<path d="M56.0625 5.16298C56.0625 5.33058 56.0543 5.49702 56.038 5.66345C56.0216 5.82989 55.9971 5.99516 55.9644 6.15926C55.9317 6.32335 55.8914 6.48512 55.8429 6.64513C55.7938 6.80514 55.7378 6.96282 55.6735 7.11699C55.6099 7.27174 55.5386 7.42241 55.4598 7.57016C55.381 7.71732 55.2951 7.86098 55.2023 7.99997C55.1088 8.13896 55.0096 8.27327 54.9033 8.40233C54.7976 8.53139 54.6854 8.6552 54.5669 8.77375C54.4489 8.89171 54.3251 9.00384 54.1961 9.11012C54.0664 9.21582 53.9321 9.31568 53.7931 9.40854C53.6541 9.50139 53.5111 9.58724 53.3633 9.66607C53.2161 9.74491 53.0649 9.81616 52.9107 9.8804C52.756 9.94405 52.5989 10.0007 52.4389 10.0492C52.2789 10.0976 52.1171 10.1379 51.953 10.1706C51.7889 10.2033 51.6236 10.2279 51.4572 10.2442C51.2908 10.2606 51.1237 10.2687 50.9567 10.2687C50.7897 10.2687 50.6227 10.2606 50.4562 10.2442C50.2898 10.2279 50.1245 10.2033 49.9604 10.1706C49.7969 10.1379 49.6346 10.0976 49.4746 10.0492C49.3146 10.0007 49.1575 9.94405 49.0027 9.8804C48.8485 9.81616 48.6973 9.74491 48.5501 9.66607C48.4024 9.58724 48.2593 9.50139 48.1203 9.40854C47.9813 9.31568 47.847 9.21582 47.7179 9.11012C47.5883 9.00384 47.4645 8.89171 47.3465 8.77375C47.2286 8.6552 47.1159 8.53139 47.0102 8.40233C46.9039 8.27327 46.8046 8.13896 46.7117 7.99997C46.6189 7.86098 46.533 7.71732 46.4542 7.57016C46.3754 7.42241 46.3035 7.27174 46.2399 7.11699C46.1756 6.96282 46.1196 6.80514 46.0711 6.64513C46.0226 6.48512 45.9818 6.32335 45.9491 6.15926C45.9164 5.99516 45.8918 5.82989 45.8755 5.66345C45.8591 5.49702 45.851 5.33058 45.851 5.16298C45.851 4.99596 45.8591 4.82953 45.8755 4.66309C45.8918 4.49666 45.9164 4.33139 45.9491 4.16729C45.9818 4.00319 46.0226 3.84143 46.0711 3.68142C46.1196 3.5214 46.1756 3.36373 46.2399 3.20956C46.3035 3.0548 46.3754 2.90413 46.4542 2.75639C46.533 2.60922 46.6189 2.46556 46.7117 2.32657C46.8046 2.18759 46.9039 2.05327 47.0102 1.92421C47.1159 1.79515 47.2286 1.67135 47.3465 1.5528C47.4645 1.43483 47.5883 1.32271 47.7179 1.21642C47.847 1.11072 47.9813 1.01086 48.1203 0.918007C48.2593 0.825154 48.4024 0.739309 48.5501 0.660471C48.6973 0.581633 48.8485 0.510387 49.0027 0.446149C49.1575 0.382495 49.3146 0.325848 49.4746 0.277378C49.6346 0.228907 49.7969 0.188029 49.9604 0.155909C50.1245 0.123206 50.2898 0.0986791 50.4562 0.0823276C50.6227 0.0659761 50.7897 0.0578003 50.9567 0.0578003C51.1237 0.0578003 51.2908 0.0659761 51.4572 0.0823276C51.6236 0.0986791 51.7889 0.123206 51.953 0.155909C52.1171 0.188029 52.2789 0.228907 52.4389 0.277378C52.5989 0.325848 52.756 0.382495 52.9107 0.446149C53.0649 0.510387 53.2161 0.581633 53.3633 0.660471C53.5111 0.739309 53.6541 0.825154 53.7931 0.918007C53.9321 1.01086 54.0664 1.11072 54.1961 1.21642C54.3251 1.32271 54.4489 1.43483 54.5669 1.5528C54.6854 1.67135 54.7976 1.79515 54.9033 1.92421C55.0096 2.05327 55.1088 2.18759 55.2023 2.32657C55.2951 2.46556 55.381 2.60922 55.4598 2.75639C55.5386 2.90413 55.6099 3.0548 55.6735 3.20956C55.7378 3.36373 55.7938 3.5214 55.8429 3.68142C55.8914 3.84143 55.9317 4.00319 55.9644 4.16729C55.9971 4.33139 56.0216 4.49666 56.038 4.66309C56.0543 4.82953 56.0625 4.99596 56.0625 5.16298Z" fill="#590696"/>
<path d="M56.0625 5.16298C56.0625 5.33058 56.0543 5.49702 56.038 5.66345C56.0216 5.82989 55.9971 5.99516 55.9644 6.15926C55.9317 6.32335 55.8914 6.48512 55.8429 6.64513C55.7938 6.80514 55.7378 6.96282 55.6735 7.11699C55.6099 7.27174 55.5386 7.42241 55.4598 7.57016C55.381 7.71732 55.2951 7.86098 55.2023 7.99997C55.1088 8.13896 55.0096 8.27327 54.9033 8.40233C54.7976 8.53139 54.6854 8.6552 54.5669 8.77375C54.4489 8.89171 54.3251 9.00384 54.1961 9.11012C54.0664 9.21582 53.9321 9.31568 53.7931 9.40854C53.6541 9.50139 53.5111 9.58724 53.3633 9.66607C53.2161 9.74491 53.0649 9.81616 52.9107 9.8804C52.756 9.94405 52.5989 10.0007 52.4389 10.0492C52.2789 10.0976 52.1171 10.1379 51.953 10.1706C51.7889 10.2033 51.6236 10.2279 51.4572 10.2442C51.2908 10.2606 51.1237 10.2687 50.9567 10.2687C50.7897 10.2687 50.6227 10.2606 50.4562 10.2442C50.2898 10.2279 50.1245 10.2033 49.9604 10.1706C49.7969 10.1379 49.6346 10.0976 49.4746 10.0492C49.3146 10.0007 49.1575 9.94405 49.0027 9.8804C48.8485 9.81616 48.6973 9.74491 48.5501 9.66607C48.4024 9.58724 48.2593 9.50139 48.1203 9.40854C47.9813 9.31568 47.847 9.21582 47.7179 9.11012C47.5883 9.00384 47.4645 8.89171 47.3465 8.77375C47.2286 8.6552 47.1159 8.53139 47.0102 8.40233C46.9039 8.27327 46.8046 8.13896 46.7117 7.99997C46.6189 7.86098 46.533 7.71732 46.4542 7.57016C46.3754 7.42241 46.3035 7.27174 46.2399 7.11699C46.1756 6.96282 46.1196 6.80514 46.0711 6.64513C46.0226 6.48512 45.9818 6.32335 45.9491 6.15926C45.9164 5.99516 45.8918 5.82989 45.8755 5.66345C45.8591 5.49702 45.851 5.33058 45.851 5.16298C45.851 4.99596 45.8591 4.82953 45.8755 4.66309C45.8918 4.49666 45.9164 4.33139 45.9491 4.16729C45.9818 4.00319 46.0226 3.84143 46.0711 3.68142C46.1196 3.5214 46.1756 3.36373 46.2399 3.20956C46.3035 3.0548 46.3754 2.90413 46.4542 2.75639C46.533 2.60922 46.6189 2.46556 46.7117 2.32657C46.8046 2.18759 46.9039 2.05327 47.0102 1.92421C47.1159 1.79515 47.2286 1.67135 47.3465 1.5528C47.4645 1.43483 47.5883 1.32271 47.7179 1.21642C47.847 1.11072 47.9813 1.01086 48.1203 0.918007C48.2593 0.825154 48.4024 0.739309 48.5501 0.660471C48.6973 0.581633 48.8485 0.510387 49.0027 0.446149C49.1575 0.382495 49.3146 0.325848 49.4746 0.277378C49.6346 0.228907 49.7969 0.188029 49.9604 0.155909C50.1245 0.123206 50.2898 0.0986791 50.4562 0.0823276C50.6227 0.0659761 50.7897 0.0578003 50.9567 0.0578003C51.1237 0.0578003 51.2908 0.0659761 51.4572 0.0823276C51.6236 0.0986791 51.7889 0.123206 51.953 0.155909C52.1171 0.188029 52.2789 0.228907 52.4389 0.277378C52.5989 0.325848 52.756 0.382495 52.9107 0.446149C53.0649 0.510387 53.2161 0.581633 53.3633 0.660471C53.5111 0.739309 53.6541 0.825154 53.7931 0.918007C53.9321 1.01086 54.0664 1.11072 54.1961 1.21642C54.3251 1.32271 54.4489 1.43483 54.5669 1.5528C54.6854 1.67135 54.7976 1.79515 54.9033 1.92421C55.0096 2.05327 55.1088 2.18759 55.2023 2.32657C55.2951 2.46556 55.381 2.60922 55.4598 2.75639C55.5386 2.90413 55.6099 3.0548 55.6735 3.20956C55.7378 3.36373 55.7938 3.5214 55.8429 3.68142C55.8914 3.84143 55.9317 4.00319 55.9644 4.16729C55.9971 4.33139 56.0216 4.49666 56.038 4.66309C56.0543 4.82953 56.0625 4.99596 56.0625 5.16298Z" fill="#590696"/>
</g>
<path d="M53.6661 20.5751L35.4105 2.83549C30.5096 -1.93041 17.4467 3.59608 21.9175 7.94059L35.0449 20.7016C35.2283 20.8793 35.4022 21.0655 35.5667 21.2604C35.7318 21.4547 35.8856 21.6565 36.03 21.8658C36.1737 22.0756 36.3074 22.2912 36.4293 22.5131C36.5518 22.735 36.6624 22.9627 36.7618 23.1949C36.8612 23.4278 36.9481 23.6646 37.0233 23.9055C37.099 24.1464 37.1617 24.3907 37.212 24.6374C37.2629 24.8846 37.3007 25.1335 37.3262 25.3842C37.3516 25.6348 37.3646 25.886 37.3646 26.1379C37.3646 26.3897 37.3516 26.6409 37.3262 26.8915C37.3007 27.1416 37.2629 27.3906 37.212 27.6378C37.1617 27.885 37.099 28.1287 37.0233 28.3696C36.9481 28.6105 36.8612 28.8473 36.7618 29.0802C36.6624 29.3124 36.5518 29.5401 36.4293 29.762C36.3074 29.9839 36.1737 30.2001 36.03 30.4093C35.8856 30.6186 35.7318 30.8204 35.5667 31.0153C35.4022 31.2096 35.2283 31.3959 35.0449 31.5741L21.9252 44.3265C17.9253 48.2099 30.5581 53.9376 35.4105 49.2229L53.6661 31.4833C53.8507 31.305 54.0252 31.1182 54.1908 30.9233C54.3565 30.7284 54.5115 30.5261 54.657 30.3156C54.802 30.1058 54.9357 29.8896 55.0587 29.6672C55.1818 29.4441 55.2936 29.2159 55.393 28.9824C55.493 28.749 55.5811 28.5116 55.6569 28.2696C55.7326 28.0281 55.7959 27.7832 55.8468 27.5349C55.8976 27.2871 55.9361 27.0376 55.9615 26.7858C55.9876 26.534 56 26.2822 56 26.0292C56 25.7762 55.9876 25.5244 55.9615 25.2726C55.9361 25.0208 55.8976 24.7713 55.8468 24.5235C55.7959 24.2752 55.7326 24.0303 55.6569 23.7888C55.5811 23.5468 55.493 23.3094 55.393 23.0759C55.2936 22.8425 55.1818 22.6143 55.0587 22.3912C54.9357 22.1688 54.802 21.9526 54.657 21.7428C54.5115 21.5329 54.3565 21.33 54.1908 21.1351C54.0252 20.9402 53.8507 20.7534 53.6661 20.5751Z" fill="#0096FF"/>
<path d="M53.6661 20.8007L35.4105 2.85664C30.5096 -1.96418 17.4467 3.626 21.9175 8.02056L35.0449 20.9286C35.3596 21.2374 35.646 21.57 35.9033 21.9259C36.1607 22.2824 36.3855 22.6575 36.5784 23.0518C36.7712 23.4454 36.9286 23.8525 37.0511 24.2724C37.1741 24.6922 37.2599 25.1196 37.309 25.554C41.8319 30.7738 45.5928 35.8418 46.3756 39L53.6779 31.8223C53.8619 31.642 54.0364 31.453 54.2015 31.2559C54.3659 31.0587 54.5209 30.8535 54.6653 30.6412C54.8096 30.4289 54.9428 30.2103 55.0652 29.9852C55.1877 29.7596 55.2989 29.5293 55.3983 29.2932C55.4977 29.0571 55.5847 28.817 55.6604 28.5727C55.7355 28.3285 55.7982 28.0808 55.8491 27.8307C55.8994 27.5801 55.9373 27.3277 55.9627 27.0736C55.9881 26.8194 56.0006 26.5647 56 26.3089C56 26.0536 55.987 25.7989 55.9609 25.5447C55.9349 25.2906 55.8964 25.0388 55.8456 24.7882C55.7947 24.5375 55.7308 24.2904 55.6551 24.0462C55.5793 23.8019 55.4918 23.5617 55.3918 23.3262C55.2918 23.0907 55.18 22.8604 55.0575 22.6354C54.9345 22.4103 54.8002 22.1917 54.6558 21.98C54.5109 21.7677 54.3559 21.5631 54.1902 21.3665C54.0252 21.1694 53.85 20.9809 53.6661 20.8007Z" fill="#5800FF"/>
</svg>
